<svg width="82" height="82" viewBox="0 0 82 82" fill="none" xmlns="http://www.w3.org/2000/svg">
<circle cx="41" cy="41" r="41" fill="#24A676" fill-opacity="0.35"/>
<path d="M29.7188 34.0625H23.7813C22.7975 34.0625 22 34.881 22 35.8906V54.1719C22 55.1815 22.7975 56 23.7813 56H29.7188C30.7025 56 31.5 55.1815 31.5 54.1719V35.8906C31.5 34.881 30.7025 34.0625 29.7188 34.0625ZM26.75 52.9531C25.7662 52.9531 24.9688 52.1347 24.9688 51.125C24.9688 50.1153 25.7662 49.2969 26.75 49.2969C27.7338 49.2969 28.5313 50.1153 28.5313 51.125C28.5313 52.1347 27.7338 52.9531 26.75 52.9531ZM50.5 23.2044C50.5 26.4353 48.5726 28.2475 48.0302 30.4062H55.58C58.0587 30.4062 59.9884 32.5197 60 34.8317C60.0062 36.1981 59.4399 37.669 58.5572 38.5791L58.549 38.5875C59.2791 40.3651 59.1604 42.8559 57.8582 44.6408C58.5025 46.6133 57.8531 49.0362 56.6424 50.3352C56.9614 51.6756 56.8089 52.8165 56.1861 53.7349C54.6713 55.9685 50.9168 56 47.742 56L47.5308 55.9999C43.947 55.9986 41.014 54.6595 38.6572 53.5834C37.4729 53.0426 35.9244 52.3732 34.7495 52.3511C34.2641 52.3419 33.875 51.9354 33.875 51.4372V35.1539C33.875 34.9101 33.9702 34.6762 34.1391 34.5048C37.0792 31.5232 38.3434 28.3664 40.7532 25.889C41.852 24.7592 42.2516 23.0526 42.6379 21.4023C42.9679 19.993 43.6583 17 45.1563 17C46.9375 17 50.5 17.6094 50.5 23.2044Z" fill="#24A676"/>
</svg>
