<svg width="82" height="82" viewBox="0 0 82 82" fill="none" xmlns="http://www.w3.org/2000/svg">
<circle cx="41" cy="41" r="41" fill="#6371BF" fill-opacity="0.35"/>
<path d="M29.7188 44.9375L23.7813 44.9375C22.7975 44.9375 22 44.119 22 43.1094L22 24.8281C22 23.8185 22.7975 23 23.7813 23L29.7188 23C30.7025 23 31.5 23.8185 31.5 24.8281L31.5 43.1094C31.5 44.119 30.7025 44.9375 29.7188 44.9375ZM26.75 26.0469C25.7662 26.0469 24.9688 26.8653 24.9688 27.875C24.9688 28.8847 25.7662 29.7031 26.75 29.7031C27.7338 29.7031 28.5313 28.8847 28.5313 27.875C28.5313 26.8653 27.7338 26.0469 26.75 26.0469ZM50.5 55.7957C50.5 52.5647 48.5726 50.7525 48.0302 48.5938L55.58 48.5938C58.0587 48.5938 59.9884 46.4803 60 44.1683C60.0062 42.8019 59.4399 41.331 58.5572 40.4209L58.5491 40.4125C59.2791 38.6349 59.1604 36.1441 57.8582 34.3592C58.5025 32.3867 57.8531 29.9638 56.6424 28.6648C56.9614 27.3244 56.8089 26.1835 56.1861 25.2651C54.6713 23.0315 50.9168 23 47.742 23L47.5308 23.0001C43.947 23.0014 41.014 24.3406 38.6572 25.4166C37.4729 25.9574 35.9244 26.6268 34.7495 26.6489C34.2641 26.6581 33.875 27.0646 33.875 27.5628L33.875 43.8461C33.875 44.0899 33.9702 44.3238 34.1391 44.4952C37.0792 47.4768 38.3434 50.6336 40.7532 53.111C41.852 54.2408 42.2516 55.9474 42.6379 57.5977C42.9679 59.007 43.6583 62 45.1563 62C46.9375 62 50.5 61.3906 50.5 55.7957Z" fill="#5743D9"/>
</svg>
