<svg width="82" height="82" viewBox="0 0 82 82" fill="none" xmlns="http://www.w3.org/2000/svg">
<circle cx="41" cy="41" r="41" fill="#AEB0B0" fill-opacity="0.35"/>
<path d="M32.0556 32.75C32.0556 25.4984 39.6523 19.625 49.0278 19.625C58.4033 19.625 66 25.4984 66 32.75C66 35.5637 64.8495 38.1559 62.8993 40.2969C63.9927 42.7742 65.796 44.743 65.8205 44.7676C66 44.9562 66.049 45.2352 65.9429 45.4813C65.8368 45.7273 65.6083 45.875 65.3472 45.875C62.3608 45.875 59.8884 44.866 58.1095 43.8242C55.4821 45.1121 52.3733 45.875 49.0278 45.875C39.6523 45.875 32.0556 40.0016 32.0556 32.75ZM22.1007 50.7969C20.1505 48.6641 19 46.0637 19 43.25C19 37.7621 23.3654 33.0617 29.5505 31.1012C29.4771 31.6426 29.4444 32.1922 29.4444 32.75C29.4444 41.4371 38.2325 48.5 49.0278 48.5C49.909 48.5 50.7658 48.4344 51.6144 48.3441C49.0441 53.0609 43.0059 56.375 35.9722 56.375C32.6267 56.375 29.5179 55.6203 26.8905 54.3242C25.1116 55.366 22.6392 56.375 19.6528 56.375C19.3917 56.375 19.155 56.2191 19.0571 55.9813C18.951 55.7434 19 55.4645 19.1795 55.2676C19.204 55.243 21.0073 53.2824 22.1007 50.7969Z" fill="#6371BF"/>
</svg>
