<svg width="68" height="68" viewBox="0 0 68 68" fill="none" xmlns="http://www.w3.org/2000/svg">
<rect width="68" height="68" fill="#5241BF"/>
<path d="M14.1312 17V16C13.579 16 13.1312 16.4477 13.1312 17H14.1312ZM26.6361 17L27.6109 16.777C27.5069 16.3224 27.1024 16 26.6361 16V17ZM18.4385 23.664L17.4541 23.4877L17.4385 23.5751V23.664H18.4385ZM22.3288 23.6972H23.3288V23.6084L23.3132 23.521L22.3288 23.6972ZM18.4385 34.6681L17.4541 34.4919L17.4385 34.5793V34.6681H18.4385ZM22.3288 34.7014H23.3288V34.6126L23.3132 34.5251L22.3288 34.7014ZM30.6654 34.6681L29.681 34.4919L29.6654 34.5793V34.6681H30.6654ZM34.5558 34.7014H35.5558V34.6126L35.5401 34.5251L34.5558 34.7014ZM18.4385 47.3652L17.4541 47.189L17.4385 47.2764V47.3652H18.4385ZM22.3288 47.3985H23.3288V47.3097L23.3132 47.2222L22.3288 47.3985ZM30.6654 47.3652L29.681 47.189L29.6654 47.2764V47.3652H30.6654ZM34.5558 47.3985H35.5558V47.3097L35.5401 47.2222L34.5558 47.3985ZM42.8923 46.8009L41.908 46.6246L41.8923 46.7121V46.8009H42.8923ZM46.7827 46.8342H47.7827V46.7453L47.767 46.6579L46.7827 46.8342ZM14.1312 50H11.7692V52H14.1312V50ZM14.1312 52H53.5909V50H14.1312V52ZM53.5909 52H56.2308V50H53.5909V52ZM54.5909 51V38.8672H52.5909V51H54.5909ZM53.5909 39.8672H56.2308V37.8672H53.5909V39.8672ZM14.1312 37.8672H11.7692V39.8672H14.1312V37.8672ZM13.1312 38.8672V51H15.1312V38.8672H13.1312ZM13.1312 17V27.9336H15.1312V17H13.1312ZM13.1312 27.9336V38.8672H15.1312V27.9336H13.1312ZM14.1312 26.9336H11.7692V28.9336H14.1312V26.9336ZM37.1957 28.9336H39.1409V26.9336H37.1957V28.9336ZM53.5909 37.8672H40.9471V39.8672H53.5909V37.8672ZM40.9471 37.8672H14.1312V39.8672H40.9471V37.8672ZM36.2498 28.2582L40.0012 39.1918L41.893 38.5427L38.1415 27.6091L36.2498 28.2582ZM14.1312 28.9336H29.137V26.9336H14.1312V28.9336ZM29.137 28.9336H37.1957V26.9336H29.137V28.9336ZM30.1118 27.7106L27.6109 16.777L25.6612 17.223L28.1622 28.1566L30.1118 27.7106ZM26.6361 16H14.1312V18H26.6361V16ZM19.4385 27.1909V23.664H17.4385V27.1909H19.4385ZM19.4228 23.8402C19.435 23.7722 19.4964 23.6189 19.623 23.5107C19.7122 23.4345 19.9103 23.3107 20.3683 23.3823L20.6769 21.4062C19.6899 21.2521 18.8922 21.5045 18.3238 21.9902C17.7927 22.444 17.5346 23.0385 17.4541 23.4877L19.4228 23.8402ZM23.3288 27.2242V23.6972H21.3288V27.2242H23.3288ZM23.3132 23.521C23.2327 23.0718 22.9746 22.4773 22.4435 22.0235C21.8751 21.5378 21.0774 21.2853 20.0904 21.4395L20.399 23.4156C20.857 23.344 21.0551 23.4678 21.1443 23.544C21.2709 23.6522 21.3323 23.8054 21.3445 23.8735L23.3132 23.521ZM19.4385 38.1951V34.6681H17.4385V38.1951H19.4385ZM19.4228 34.8444C19.435 34.7763 19.4964 34.623 19.623 34.5149C19.7122 34.4387 19.9103 34.3149 20.3683 34.3864L20.6769 32.4104C19.6899 32.2562 18.8922 32.5086 18.3238 32.9944C17.7927 33.4482 17.5346 34.0427 17.4541 34.4919L19.4228 34.8444ZM23.3288 38.2284V34.7014H21.3288V38.2284H23.3288ZM23.3132 34.5251C23.2327 34.0759 22.9746 33.4815 22.4435 33.0277C21.8751 32.5419 21.0774 32.2895 20.0904 32.4437L20.399 34.4197C20.857 34.3482 21.0551 34.4719 21.1443 34.5482C21.2709 34.6563 21.3323 34.8096 21.3445 34.8777L23.3132 34.5251ZM31.6654 38.1951V34.6681H29.6654V38.1951H31.6654ZM31.6497 34.8444C31.6619 34.7763 31.7234 34.623 31.8499 34.5149C31.9391 34.4387 32.1372 34.3149 32.5952 34.3864L32.9039 32.4104C31.9168 32.2562 31.1191 32.5086 30.5507 32.9944C30.0196 33.4482 29.7615 34.0427 29.681 34.4919L31.6497 34.8444ZM35.5558 38.2284V34.7014H33.5558V38.2284H35.5558ZM35.5401 34.5251C35.4597 34.0759 35.2015 33.4815 34.6705 33.0277C34.102 32.5419 33.3043 32.2895 32.3173 32.4437L32.626 34.4197C33.084 34.3482 33.282 34.4719 33.3712 34.5482C33.4978 34.6563 33.5592 34.8096 33.5714 34.8777L35.5401 34.5251ZM19.4385 50.8922V47.3652H17.4385V50.8922H19.4385ZM19.4228 47.5415C19.435 47.4734 19.4964 47.3201 19.623 47.212C19.7122 47.1358 19.9103 47.012 20.3683 47.0835L20.6769 45.1075C19.6899 44.9533 18.8922 45.2057 18.3238 45.6915C17.7927 46.1453 17.5346 46.7397 17.4541 47.189L19.4228 47.5415ZM23.3288 50.9255V47.3985H21.3288V50.9255H23.3288ZM23.3132 47.2222C23.2327 46.773 22.9746 46.1786 22.4435 45.7248C21.8751 45.239 21.0774 44.9866 20.0904 45.1408L20.399 47.1168C20.857 47.0453 21.0551 47.169 21.1443 47.2453C21.2709 47.3534 21.3323 47.5067 21.3445 47.5748L23.3132 47.2222ZM31.6654 50.8922V47.3652H29.6654V50.8922H31.6654ZM31.6497 47.5415C31.6619 47.4734 31.7234 47.3201 31.8499 47.212C31.9391 47.1358 32.1372 47.012 32.5952 47.0835L32.9039 45.1075C31.9168 44.9533 31.1191 45.2057 30.5507 45.6915C30.0196 46.1453 29.7615 46.7397 29.681 47.189L31.6497 47.5415ZM35.5558 50.9255V47.3985H33.5558V50.9255H35.5558ZM35.5401 47.2222C35.4597 46.773 35.2015 46.1786 34.6705 45.7248C34.102 45.239 33.3043 44.9866 32.3173 45.1408L32.626 47.1168C33.084 47.0453 33.282 47.169 33.3712 47.2453C33.4978 47.3534 33.5592 47.5067 33.5714 47.5748L35.5401 47.2222ZM43.8923 50.3279V46.8009H41.8923V50.3279H43.8923ZM43.8766 46.9772C43.8888 46.9091 43.9503 46.7558 44.0769 46.6477C44.166 46.5715 44.3641 46.4477 44.8221 46.5192L45.1308 44.5432C44.1438 44.389 43.3461 44.6414 42.7776 45.1272C42.2465 45.581 41.9884 46.1754 41.908 46.6246L43.8766 46.9772ZM47.7827 50.3611V46.8342H45.7827V50.3611H47.7827ZM47.767 46.6579C47.6866 46.2087 47.4285 45.6142 46.8974 45.1604C46.3289 44.6747 45.5312 44.4223 44.5442 44.5764L44.8529 46.5525C45.3109 46.4809 45.5089 46.6047 45.5981 46.6809C45.7247 46.7891 45.7862 46.9424 45.7983 47.0104L47.767 46.6579Z" fill="#29EBA4"/>
</svg>
