<svg width="104" height="104" viewBox="0 0 104 104" fill="none" xmlns="http://www.w3.org/2000/svg">
<rect width="104" height="104" fill="#29EBA4"/>
<path d="M21.6125 26V24.5C20.7841 24.5 20.1125 25.1716 20.1125 26H21.6125ZM40.7375 26L42.1997 25.6655C42.0437 24.9836 41.4371 24.5 40.7375 24.5V26ZM28.2 36.192L26.7235 35.9276L26.7 36.0587V36.192H28.2ZM34.15 36.2428H35.65V36.1096L35.6265 35.9785L34.15 36.2428ZM28.2 53.0218L26.7235 52.7574L26.7 52.8886V53.0218H28.2ZM34.15 53.0727H35.65V52.9395L35.6265 52.8083L34.15 53.0727ZM46.9 53.0218L45.4235 52.7574L45.4 52.8886V53.0218H46.9ZM52.85 53.0727H54.35V52.9395L54.3265 52.8083L52.85 53.0727ZM28.2 72.4409L26.7235 72.1765L26.7 72.3077V72.4409H28.2ZM34.15 72.4918H35.65V72.3586L35.6265 72.2274L34.15 72.4918ZM46.9 72.4409L45.4235 72.1765L45.4 72.3077V72.4409H46.9ZM52.85 72.4918H54.35V72.3586L54.3265 72.2274L52.85 72.4918ZM65.6 71.5779L64.1235 71.3135L64.1 71.4446V71.5779H65.6ZM71.55 71.6287H73.05V71.4955L73.0265 71.3643L71.55 71.6287ZM21.6125 76.5H18V79.5H21.6125V76.5ZM21.6125 79.5H81.9625V76.5H21.6125V79.5ZM81.9625 79.5H86V76.5H81.9625V79.5ZM83.4625 78V59.444H80.4625V78H83.4625ZM81.9625 60.944H86V57.944H81.9625V60.944ZM21.6125 57.944H18V60.944H21.6125V57.944ZM20.1125 59.444V78H23.1125V59.444H20.1125ZM20.1125 26V42.722H23.1125V26H20.1125ZM20.1125 42.722V59.444H23.1125V42.722H20.1125ZM21.6125 41.222H18V44.222H21.6125V41.222ZM56.8875 44.222H59.8625V41.222H56.8875V44.222ZM81.9625 57.944H62.625V60.944H81.9625V57.944ZM62.625 57.944H21.6125V60.944H62.625V57.944ZM55.4687 43.2088L61.2062 59.9308L64.0438 58.9572L58.3063 42.2352L55.4687 43.2088ZM21.6125 44.222H44.5625V41.222H21.6125V44.222ZM44.5625 44.222H56.8875V41.222H44.5625V44.222ZM46.0247 42.3875L42.1997 25.6655L39.2753 26.3345L43.1003 43.0565L46.0247 42.3875ZM40.7375 24.5H21.6125V27.5H40.7375V24.5ZM29.7 41.5862V36.192H26.7V41.5862H29.7ZM29.6765 36.4564C29.6962 36.3466 29.793 36.1057 29.9926 35.9352C30.136 35.8127 30.4478 35.6214 31.156 35.7321L31.619 32.768C30.1172 32.5334 28.9061 32.9176 28.0437 33.6545C27.2374 34.3435 26.8455 35.2462 26.7235 35.9276L29.6765 36.4564ZM35.65 41.637V36.2428H32.65V41.637H35.65ZM35.6265 35.9785C35.5045 35.297 35.1126 34.3943 34.3063 33.7054C33.4439 32.9685 32.2328 32.5843 30.731 32.8189L31.194 35.783C31.9022 35.6723 32.214 35.8635 32.3574 35.9861C32.557 36.1566 32.6538 36.3975 32.6735 36.5072L35.6265 35.9785ZM29.7 58.416V53.0218H26.7V58.416H29.7ZM29.6765 53.2862C29.6962 53.1765 29.793 52.9356 29.9926 52.7651C30.136 52.6425 30.4478 52.4513 31.156 52.562L31.619 49.5979C30.1172 49.3633 28.9061 49.7475 28.0437 50.4844C27.2374 51.1733 26.8455 52.076 26.7235 52.7574L29.6765 53.2862ZM35.65 58.4669V53.0727H32.65V58.4669H35.65ZM35.6265 52.8083C35.5045 52.1269 35.1126 51.2242 34.3063 50.5352C33.4439 49.7984 32.2328 49.4142 30.731 49.6488L31.194 52.6128C31.9022 52.5022 32.214 52.6934 32.3574 52.816C32.557 52.9865 32.6538 53.2274 32.6735 53.3371L35.6265 52.8083ZM48.4 58.416V53.0218H45.4V58.416H48.4ZM48.3765 53.2862C48.3962 53.1765 48.493 52.9356 48.6926 52.7651C48.836 52.6425 49.1478 52.4513 49.856 52.562L50.319 49.5979C48.8172 49.3633 47.6061 49.7475 46.7437 50.4844C45.9374 51.1733 45.5455 52.076 45.4235 52.7574L48.3765 53.2862ZM54.35 58.4669V53.0727H51.35V58.4669H54.35ZM54.3265 52.8083C54.2045 52.1269 53.8126 51.2242 53.0063 50.5352C52.1439 49.7984 50.9328 49.4142 49.431 49.6488L49.894 52.6128C50.6022 52.5022 50.914 52.6934 51.0574 52.816C51.257 52.9865 51.3538 53.2274 51.3735 53.3371L54.3265 52.8083ZM29.7 77.8351V72.4409H26.7V77.8351H29.7ZM29.6765 72.7053C29.6962 72.5956 29.793 72.3547 29.9926 72.1842C30.136 72.0616 30.4478 71.8704 31.156 71.981L31.619 69.017C30.1172 68.7824 28.9061 69.1666 28.0437 69.9034C27.2374 70.5924 26.8455 71.4951 26.7235 72.1765L29.6765 72.7053ZM35.65 77.886V72.4918H32.65V77.886H35.65ZM35.6265 72.2274C35.5045 71.546 35.1126 70.6433 34.3063 69.9543C33.4439 69.2174 32.2328 68.8333 30.731 69.0679L31.194 72.0319C31.9022 71.9213 32.214 72.1125 32.3574 72.2351C32.557 72.4056 32.6538 72.6465 32.6735 72.7562L35.6265 72.2274ZM48.4 77.8351V72.4409H45.4V77.8351H48.4ZM48.3765 72.7053C48.3962 72.5956 48.493 72.3547 48.6926 72.1842C48.836 72.0616 49.1478 71.8704 49.856 71.981L50.319 69.017C48.8172 68.7824 47.6061 69.1666 46.7437 69.9034C45.9374 70.5924 45.5455 71.4951 45.4235 72.1765L48.3765 72.7053ZM54.35 77.886V72.4918H51.35V77.886H54.35ZM54.3265 72.2274C54.2045 71.546 53.8126 70.6433 53.0063 69.9543C52.1439 69.2174 50.9328 68.8333 49.431 69.0679L49.894 72.0319C50.6022 71.9213 50.914 72.1125 51.0574 72.2351C51.257 72.4056 51.3538 72.6465 51.3735 72.7562L54.3265 72.2274ZM67.1 76.972V71.5779H64.1V76.972H67.1ZM67.0765 71.8422C67.0962 71.7325 67.193 71.4916 67.3926 71.3211C67.536 71.1985 67.8478 71.0073 68.556 71.118L69.019 68.1539C67.5172 67.9193 66.3061 68.3035 65.4437 69.0404C64.6374 69.7294 64.2455 70.632 64.1235 71.3135L67.0765 71.8422ZM73.05 77.0229V71.6287H70.05V77.0229H73.05ZM73.0265 71.3643C72.9045 70.6829 72.5126 69.7802 71.7063 69.0913C70.8439 68.3544 69.6328 67.9702 68.131 68.2048L68.594 71.1689C69.3022 71.0582 69.614 71.2494 69.7574 71.372C69.957 71.5425 70.0538 71.7834 70.0735 71.8931L73.0265 71.3643Z" fill="#5241BF"/>
</svg>
